<?xml version="1.0" encoding="UTF-8" standalone="no"?>
<!-- Created with Inkscape (http://www.inkscape.org/) -->

<svg
   version="1.1"
   id="svg1"
   width="202.00005"
   height="205.51698"
   viewBox="0 0 202.00005 205.51698"
   xmlns="http://www.w3.org/2000/svg"
   xmlns:svg="http://www.w3.org/2000/svg">
  <defs
     id="defs1" />
  <g
     id="g1"
     transform="translate(-21.87573,-18.920873)">
    <path
       style="fill:#ffffff;fill-opacity:1"
       d="M 67.667471,223.18786 C 66.792686,222.50036 56.131677,208.46681 43.976342,192.00219 27.09443,169.13535 21.87573,161.37924 21.87573,159.15595 c 0,-1.60082 1.383362,-20.30476 3.074138,-41.56433 2.05029,-25.780036 3.515468,-39.319859 4.399243,-40.653755 3.008466,-4.54072 48.791132,-57.064417 50.395857,-57.816132 1.885577,-0.883277 31.476592,6.52833 33.815942,8.469816 1.06875,0.886983 1.31482,18.07024 1.31482,91.813771 0,85.16315 -0.10724,90.81468 -1.75,92.22572 -1.32227,1.13576 -40.866848,12.80682 -43.392823,12.80682 -0.261204,0 -1.19065,-0.5625 -2.065436,-1.25 z m 22.688811,-14.08721 c 11.724208,-3.24364 11.927478,-3.34816 9.499999,-4.8848 -6.141556,-3.88772 -59.205312,-33.88052 -59.439074,-33.59626 -0.143957,0.17505 6.899729,9.92627 15.652633,21.66939 18.362933,24.63616 13.905171,22.45039 34.286442,16.81167 z m 15.519448,-45.16279 c 0,-17.875 -0.17841,-32.5 -0.39648,-32.5 -0.30713,0 -48.000357,20.06131 -62.919552,26.46599 -2.742816,1.17747 -1.975805,1.69351 29.5,19.84746 17.773818,10.25121 32.653532,18.64936 33.066032,18.66255 0.4125,0.0132 0.75,-14.601 0.75,-32.476 z m -35.709951,-27.5 c 16.309122,-6.875 29.644722,-12.725 29.634652,-13 C 99.775891,122.7671 37.512676,86.467586 37.097986,86.882276 36.72958,87.250682 31.895414,145.45979 31.883477,149.67115 l -0.0077,2.7333 4.318549,-1.7333 c 2.375155,-0.95331 17.662331,-7.35829 33.971453,-14.23329 z M 105.87573,77.937865 c 0,-20.625 -0.22104,-37.5 -0.49119,-37.5 -0.69776,0 -58.760158,37.014862 -60.196253,38.375198 -0.894583,0.84739 6.257749,5.500923 29,18.868308 16.603094,9.758939 30.524943,17.746439 30.937443,17.749999 0.4125,0.004 0.75,-16.868509 0.75,-37.493505 z M 78.668738,46.138952 C 89.829892,39.017329 98.829891,33.05992 98.668741,32.900266 98.507581,32.740612 94.948401,31.73264 90.75945,30.660329 L 83.14317,28.710673 72.75945,40.725779 c -5.711045,6.608308 -11.958719,13.840939 -13.883719,16.072514 -1.925,2.231574 -2.825,3.65953 -2,3.173236 0.825,-0.486294 10.631853,-6.710954 21.793007,-13.832577 z M 154.18531,218.51045 c -11.10474,-3.15085 -20.89224,-6.31126 -21.75,-7.02315 -1.39168,-1.15498 -1.55958,-11.00382 -1.55958,-91.48076 0,-70.61107 0.27132,-90.541053 1.25,-91.82028 1.46375,-1.913257 31.70103,-10.088154 34.02106,-9.197874 1.20674,0.46307 42.44525,47.543172 50.00337,57.086548 1.48309,1.872642 2.26113,8.284579 4.73864,39.051716 1.63032,20.24617 2.96932,39.17458 2.97557,42.06314 l 0.0114,5.25193 -21.57532,29.24807 c -21.31219,28.89136 -24.55436,32.84324 -26.78546,32.64877 -0.62657,-0.0546 -10.22491,-2.67726 -21.32964,-5.82811 z m 35.87369,-26.3325 c 8.6258,-11.66378 15.54576,-21.34439 15.3777,-21.51245 -0.27192,-0.27192 -9.08049,4.71587 -50.44847,28.56606 l -11.3875,6.56532 13.3875,3.73114 c 7.36312,2.05212 14.2875,3.75941 15.3875,3.79397 1.4738,0.0463 6.1263,-5.51673 17.68327,-21.14404 z m -14.68327,-15.22259 c 15.95,-9.17326 29.3301,-16.99499 29.73355,-17.38162 0.40345,-0.38664 -13.54655,-6.72323 -31,-14.08132 -17.45345,-7.35809 -32.07105,-13.55705 -32.48355,-13.77547 -0.4125,-0.21842 -0.75,14.26599 -0.75,32.18757 v 32.5847 l 2.75,-1.42761 c 1.5125,-0.78518 15.8,-8.93299 31.75,-18.10625 z m 38.76653,-29.2675 c -0.24194,-2.6125 -1.4388,-17.35 -2.6597,-32.75 -1.37209,-17.307079 -2.60871,-27.926821 -3.23815,-27.808385 -1.65135,0.310717 -61.36868,35.624685 -61.36868,36.290505 0,0.53126 65.52867,28.81277 67.10321,28.96107 0.33176,0.0312 0.40526,-2.08069 0.16332,-4.69319 z m -41.9427,-50.249999 c 16.31757,-9.624996 29.64855,-17.724996 29.6244,-17.999996 -0.0241,-0.275 -12.45115,-8.375 -27.61557,-18 -15.16442,-9.625 -28.8679,-18.331691 -30.45217,-19.348201 l -2.88049,-1.848202 v 37.681535 c 0,20.724844 0.37249,37.531533 0.82776,37.348193 0.45527,-0.18333 14.1785,-8.20833 30.49607,-17.833329 z m 15.99875,-39.294429 c -1.00242,-1.261939 -7.12728,-8.40604 -13.61081,-15.875781 l -11.78823,-13.581348 -7.99612,2.0081 c -4.39786,1.104455 -7.78054,2.223675 -7.51706,2.487157 0.63799,0.637991 41.99842,27.190064 42.41222,27.227287 0.17742,0.01596 -0.49758,-1.003477 -1.5,-2.265415 z"
       id="path1" />
  </g>
</svg>
