<?xml version="1.0" encoding="UTF-8" standalone="no"?>
<!-- Created with Inkscape (http://www.inkscape.org/) -->

<svg
   width="1350.0389"
   height="900.45599"
   viewBox="0 0 357.19781 238.24565"
   version="1.1"
   id="svg1"
   xmlns:inkscape="http://www.inkscape.org/namespaces/inkscape"
   xmlns:sodipodi="http://sodipodi.sourceforge.net/DTD/sodipodi-0.dtd"
   xmlns="http://www.w3.org/2000/svg"
   xmlns:svg="http://www.w3.org/2000/svg">
  <sodipodi:namedview
     id="namedview1"
     pagecolor="#ffffff"
     bordercolor="#000000"
     borderopacity="0.25"
     inkscape:showpageshadow="2"
     inkscape:pageopacity="0.0"
     inkscape:pagecheckerboard="0"
     inkscape:deskcolor="#d1d1d1"
     inkscape:document-units="mm" />
  <defs
     id="defs1" />
  <g
     inkscape:label="Layer 1"
     inkscape:groupmode="layer"
     id="layer1"
     transform="translate(2.0850826,46.632329)">
    <path
       style="fill:none;stroke:#000000;stroke-width:1;stroke-opacity:1"
       d="M 212.50778,46.211387 C 307.67263,-8.0932031 307.67263,-8.0932031 307.67263,-8.0932031"
       id="path1"
       inkscape:export-filename="background design.svg"
       inkscape:export-xdpi="96"
       inkscape:export-ydpi="96" />
    <circle
       style="fill:none;stroke:#000000;stroke-width:1;stroke-opacity:1"
       id="path2"
       cx="310.24121"
       cy="-9.7402439"
       r="3.5587964" />
    <circle
       style="fill:none;stroke:#000000;stroke-width:1;stroke-opacity:1"
       id="path2-5"
       cx="275.9278"
       cy="-36.824711"
       r="3.5587964" />
    <path
       style="fill:none;stroke:#000000;stroke-width:1;stroke-opacity:1"
       d="M 275.87706,10.168637 V -33.697738"
       id="path3" />
    <path
       style="fill:none;stroke:#000000;stroke-width:1;stroke-opacity:1"
       d="m 296.28003,-1.0529911 17.51255,26.1838081 41.31601,-0.34005"
       id="path4" />
    <path
       style="fill:none;stroke:#000000;stroke-width:0.994877;stroke-opacity:1"
       d="M 146.39436,154.04906 C 52.20664,99.741792 52.20664,99.741792 52.20664,99.741792"
       id="path1-7" />
    <ellipse
       style="fill:none;stroke:#000000;stroke-width:0.994877;stroke-opacity:1"
       id="path2-0"
       cx="-49.44474"
       cy="97.996071"
       rx="3.5222554"
       ry="3.5589721"
       transform="scale(-1,1)" />
    <ellipse
       style="fill:none;stroke:#000000;stroke-width:0.994877;stroke-opacity:1"
       id="path2-2-9"
       cx="-1.9346113"
       cy="132.21896"
       rx="3.5222554"
       ry="3.5589721"
       transform="scale(-1,1)" />
    <ellipse
       style="fill:none;stroke:#000000;stroke-width:0.994877;stroke-opacity:1"
       id="path2-5-3"
       cx="-83.625511"
       cy="71.008858"
       rx="3.5222554"
       ry="3.5589721"
       transform="scale(-1,1)" />
    <ellipse
       style="fill:none;stroke:#000000;stroke-width:0.994877;stroke-opacity:1"
       id="path2-5-3-0"
       cx="-118.908"
       cy="38.362545"
       rx="3.5222554"
       ry="3.5589721"
       transform="scale(-1,1)" />
    <path
       style="fill:none;stroke:#000000;stroke-width:0.994877;stroke-opacity:1"
       d="M 83.675735,118.00453 V 74.135982"
       id="path3-6" />
    <ellipse
       style="fill:none;stroke:#000000;stroke-width:0.994877;stroke-opacity:1"
       id="path2-5-3-8"
       cx="-24.807554"
       cy="-45.779514"
       rx="3.5222554"
       ry="3.5589721"
       transform="matrix(0,-1,-1,0,0,0)" />
    <path
       style="fill:none;stroke:#000000;stroke-width:0.994877;stroke-opacity:1"
       d="M -2.0512034,25.135582 H 41.817346"
       id="path3-6-4" />
    <ellipse
       style="fill:none;stroke:#000000;stroke-width:0.994877;stroke-opacity:1"
       id="path2-5-3-93"
       cx="-153.57425"
       cy="-193.10307"
       rx="3.5222554"
       ry="3.5589721"
       transform="matrix(0,-1,-1,0,0,0)" />
    <path
       style="fill:none;stroke:#000000;stroke-width:0.994877;stroke-opacity:1"
       d="m 146.1074,153.79817 h 43.86855"
       id="path3-6-1" />
    <ellipse
       style="fill:none;stroke:#000000;stroke-width:0.994877;stroke-opacity:1"
       id="path2-5-3-9"
       cx="-169.83839"
       cy="47.657043"
       rx="3.5222554"
       ry="3.5589721"
       transform="scale(-1,1)" />
    <path
       style="fill:none;stroke:#000000;stroke-width:0.994877;stroke-opacity:1"
       d="M 169.88862,94.652712 V 50.784166"
       id="path3-6-2" />
    <path
       style="fill:none;stroke:#000000;stroke-width:0.994877;stroke-opacity:1"
       d="M 63.48226,106.78235 46.14953,132.96745 5.2577402,132.62738"
       id="path4-0" />
    <ellipse
       style="fill:none;stroke:#000000;stroke-width:0.994877;stroke-opacity:1"
       id="path2-2-9-1"
       cx="-37.77607"
       cy="-151.57382"
       rx="3.5222554"
       ry="3.5589721"
       transform="matrix(0,-1,-1,0,0,0)" />
    <path
       style="fill:none;stroke:#000000;stroke-width:0.994877;stroke-opacity:1"
       d="m 177.01045,99.323704 -26.1851,-17.332728 0.34007,-40.89179"
       id="path4-0-8" />
    <path
       style="fill:none;stroke:#000000;stroke-width:0.994877;stroke-opacity:1"
       d="M 324.47471,126.95797 V 83.089433"
       id="path3-6-2-5" />
    <path
       style="fill:none;stroke:#000000;stroke-width:0.994877;stroke-opacity:1"
       d="m 331.59654,131.62896 -26.1851,-17.33272 0.34007,-40.891787"
       id="path4-0-8-4" />
    <ellipse
       style="fill:none;stroke:#000000;stroke-width:0.994877;stroke-opacity:1"
       id="path2-5-3-7"
       cx="212.34673"
       cy="-100.97121"
       rx="3.5222554"
       ry="3.5589721"
       transform="scale(1,-1)" />
    <path
       style="fill:none;stroke:#000000;stroke-width:1;stroke-opacity:1"
       d="m 177.31316,-46.630286 0.20394,49.9053325 34.80213,32.1085545 0.10197,18.175912 -35.02071,29.156861 -0.0436,32.820716 -31.0793,25.23034 0.18044,29.90622 30.85521,20.52336"
       id="path6"
       sodipodi:nodetypes="ccccccccc" />
    <ellipse
       style="fill:none;stroke:#000000;stroke-width:0.994877;stroke-opacity:1"
       id="path2-2-9-0"
       cx="92.129547"
       cy="265.34323"
       rx="3.5222554"
       ry="3.5589721"
       transform="matrix(0,1,1,0,0,0)" />
    <path
       style="fill:none;stroke:#000000;stroke-width:0.994877;stroke-opacity:1"
       d="m 239.90661,30.581894 26.1851,17.33273 -0.34007,40.891792"
       id="path4-0-2" />
    <ellipse
       style="fill:none;stroke:#000000;stroke-width:0.994877;stroke-opacity:1"
       id="path2-2-9-0-2"
       cx="-269.98206"
       cy="156.43379"
       rx="3.5222554"
       ry="3.5589721"
       transform="scale(-1,1)" />
    <ellipse
       style="fill:none;stroke:#000000;stroke-width:0.994877;stroke-opacity:1"
       id="path2-2-9-0-2-6"
       cx="-305.79547"
       cy="70.0093"
       rx="3.5222554"
       ry="3.5589721"
       transform="scale(-1,1)" />
    <path
       style="fill:none;stroke:#000000;stroke-width:0.994877;stroke-opacity:1"
       d="m 115.87019,36.822512 -26.185104,-17.33272 0.34007,-40.89179"
       id="path4-0-8-4-4" />
    <ellipse
       style="fill:none;stroke:#000000;stroke-width:0.994877;stroke-opacity:1"
       id="path2-2-9-0-2-6-7"
       cx="-90.069107"
       cy="-24.797152"
       rx="3.5222554"
       ry="3.5589721"
       transform="scale(-1,1)" />
    <ellipse
       style="fill:none;stroke:#000000;stroke-width:0.994877;stroke-opacity:1"
       id="path2-2-9-0-2-6-4"
       cx="-324.41037"
       cy="79.702782"
       rx="3.5222554"
       ry="3.5589721"
       transform="scale(-1,1)" />
    <path
       style="fill:none;stroke:#000000;stroke-width:0.994877;stroke-opacity:1"
       d="m 331.52971,130.99719 -17.33273,26.1851 -40.89179,-0.34007"
       id="path4-0-2-0" />
    <path
       style="fill:none;stroke:#000000;stroke-width:0.994877;stroke-opacity:1"
       d="m 212.40177,53.501851 v 43.86856"
       id="path3-6-3"
       inkscape:export-filename="background design.svg"
       inkscape:export-xdpi="96"
       inkscape:export-ydpi="96" />
  </g>
</svg>
